<svg xmlns="http://www.w3.org/2000/svg" width="717.843" height="477.055" viewBox="0 0 717.843 477.055">
  <g id="Group_1723" data-name="Group 1723" transform="translate(-140 -301)">
    <path id="Path_118" data-name="Path 118" d="M456.1,472.982c24.6-43.275,71.527-76.5,121.2-73.3a229.35,229.35,0,0,0-60.319,145.452c-.816,20.861.449,44.148-13.4,59.769-8.618,9.719-21.791,14.427-34.744,15.414s-25.9-1.353-38.682-3.683l-3.1.952C425.873,567.819,431.5,516.257,456.1,472.982Z" transform="translate(-58.61 102.568)" fill="#5b8fa9"/>
    <path id="Path_119" data-name="Path 119" d="M577.367,400.419c-36.734,17.683-68.057,47.218-87.285,83.236-4.157,7.787-7.7,16.048-9.24,24.783a48.417,48.417,0,0,0,2.519,25.357c2.729,7.588,6.4,15.033,7.235,23.152.882,8.558-2.267,16.56-7.935,22.91-6.935,7.77-16.248,12.585-25.519,16.977-10.294,4.877-21.063,9.779-28.354,18.88-.883,1.1-2.543-.332-1.661-1.434,12.685-15.835,34.4-18.811,49.456-31.567,7.026-5.952,12.3-14.058,11.968-23.555-.291-8.305-4.069-15.986-6.9-23.645-2.971-8.042-4.452-16.128-3.387-24.7,1.09-8.771,4.314-17.188,8.253-25.047A190.184,190.184,0,0,1,521.493,437.7a199.51,199.51,0,0,1,55.163-39.359c1.269-.611,1.971,1.469.711,2.076Z" transform="translate(-58.603 102.871)" fill="#f0f5f7"/>
    <path id="Path_120" data-name="Path 120" d="M514.178,483.243a29.411,29.411,0,0,1-8.875-37.036c.642-1.257,2.626-.318,1.983.941a27.234,27.234,0,0,0,8.326,34.434c1.144.828-.3,2.484-1.434,1.661Z" transform="translate(-77.065 91.245)" fill="#f0f5f7"/>
    <path id="Path_121" data-name="Path 121" d="M498.907,566.236A56.687,56.687,0,0,0,534.8,545.778c.887-1.1,2.547.335,1.661,1.434a58.963,58.963,0,0,1-37.391,21.212c-1.4.2-1.553-1.989-.161-2.188Z" transform="translate(-76.038 66.766)" fill="#f0f5f7"/>
    <path id="Path_122" data-name="Path 122" d="M574.322,432.6a16.648,16.648,0,0,0,14.88,5.3c1.4-.218,1.549,1.971.161,2.188a18.656,18.656,0,0,1-16.474-5.832,1.134,1.134,0,0,1-.114-1.547,1.1,1.1,0,0,1,1.547-.114Z" transform="translate(-94.338 94.503)" fill="#f0f5f7"/>
    <path id="Path_123" data-name="Path 123" d="M675.516,571.788c-.868.161-1.737.322-2.613.5a219.242,219.242,0,0,0-34.279,9.476c-.867.3-1.741.621-2.6.947a231.132,231.132,0,0,0-72.694,44.238,224.459,224.459,0,0,0-23.545,24.673c-9.958,12.167-19.788,26.151-32.8,34.084a38.505,38.505,0,0,1-4.19,2.271l-74.964-31.094c-.135-.156-.278-.3-.413-.452l-3.05-1.1c.34-.48.7-.971,1.044-1.451.2-.279.409-.552.605-.831.136-.184.273-.368.385-.542.045-.061.091-.123.129-.167.112-.174.235-.324.34-.48q3.034-4.124,6.135-8.22c.007-.017.007-.017.031-.027,15.81-20.765,33.493-40.392,53.592-56.712.6-.491,1.216-1,1.855-1.476a214.185,214.185,0,0,1,28.951-19.584,189.351,189.351,0,0,1,17.174-8.492,157.456,157.456,0,0,1,47.7-12.166c32.775-3.043,66.159,4.429,91.3,25.019C674.254,570.723,674.881,571.244,675.516,571.788Z" transform="translate(-57.987 66.977)" fill="#a3c8db"/>
    <path id="Path_124" data-name="Path 124" d="M675.292,579.887c-39.977-8-82.767-3.274-119.806,13.908-8.008,3.715-15.807,8.18-22.3,14.225a48.417,48.417,0,0,0-13.255,21.763c-2.39,7.7-3.942,15.856-8.162,22.842-4.448,7.364-11.78,11.857-20.129,13.515-10.215,2.029-20.55.266-30.6-1.809-11.155-2.3-22.705-4.874-34.006-2-1.369.349-1.83-1.8-.463-2.145,19.662-5.006,38.791,5.691,58.494,4.571,9.193-.522,18.285-3.818,23.738-11.6,4.768-6.806,6.376-15.214,8.728-23.032,2.47-8.21,6.155-15.558,12.168-21.762,6.151-6.347,13.792-11.126,21.67-15.03a190.187,190.187,0,0,1,56.862-17.32,199.508,199.508,0,0,1,67.741,1.786c1.381.276.689,2.36-.683,2.085Z" transform="translate(-58.326 59.759)" fill="#f0f5f7"/>
    <path id="Path_125" data-name="Path 125" d="M612.821,580.617A29.411,29.411,0,0,1,628.033,545.7c1.27-.617,2.288,1.327,1.017,1.945a27.234,27.234,0,0,0-14.084,32.507c.415,1.35-1.732,1.8-2.145.463Z" transform="translate(-103.917 66.717)" fill="#f0f5f7"/>
    <path id="Path_126" data-name="Path 126" d="M550.922,642.506a56.688,56.688,0,0,0,40.974,5.275c1.371-.344,1.832,1.8.463,2.145a58.963,58.963,0,0,1-42.626-5.575C548.494,643.667,549.69,641.827,550.922,642.506Z" transform="translate(-88.618 42.972)" fill="#f0f5f7"/>
    <path id="Path_127" data-name="Path 127" d="M695.693,575.794a16.648,16.648,0,0,0,8.687,13.194c1.247.667.05,2.506-1.189,1.844a18.656,18.656,0,0,1-9.642-14.575,1.134,1.134,0,0,1,.841-1.3,1.1,1.1,0,0,1,1.3.841Z" transform="translate(-124.028 59.516)" fill="#f0f5f7"/>
    <path id="Path_128" data-name="Path 128" d="M459.11,606.227c-10.5-50.762-23.622-67.687-23.622-67.687l-5.013-3.888-6.029-4.683.029-.6-1.43-.486-.336-.261-.55-.423-.089.1-.187.194L394.6,519.212l-34.612-11.757-16.027-20.833a27.721,27.721,0,0,0-22.176-10.817l-51.187.379a27.721,27.721,0,0,0-18.647,7.4l-33.644,31.207-52.424,25.037-.088-.088-.551.393-8.1,3.873.334,1.74-5.013,3.618s-13.123,15.748-23.622,62.982c-2.671,12.018-3.985,37.8-4.46,69.569a12.126,12.126,0,0,0,12.121,12.306H451.462a12.128,12.128,0,0,0,12.121-12.294C463.119,647.354,461.805,619.26,459.11,606.227Z" transform="translate(15.617 83.838)" fill="#3f3d56"/>
    <path id="Path_129" data-name="Path 129" d="M602.193,191.732a41.076,41.076,0,1,0,0,82.151H908.307a41.076,41.076,0,1,0,0-82.151Z" transform="translate(-91.54 153.538)" fill="#e5e5e5"/>
    <path id="Path_130" data-name="Path 130" d="M604.9,202.747a32.763,32.763,0,1,0,0,65.525H911.01a32.763,32.763,0,0,0,0-65.525Z" transform="translate(-94.242 150.835)" fill="#fff"/>
    <circle id="ab6171fa-7d69-4734-b81c-8dff60f9761b" cx="67.059" cy="67.059" r="67.059" transform="translate(252.789 406.295)" fill="#9e616a"/>
    <path id="Path_131" data-name="Path 131" d="M339.693,445.356q-.43-.946-.857-1.9c.11,0,.219.019.328.022Z" transform="translate(-37.001 91.774)" fill="#2f2e41"/>
    <path id="Path_132" data-name="Path 132" d="M262.827,266.305c3.392-2.706,7.356-5.2,11.692-5.055s8.734,4.056,7.835,8.3a68.912,68.912,0,0,1,82.931-31.1c10.778,3.8,21.347,11.41,23.823,22.567.636,2.864.772,6,2.56,8.33,2.255,2.932,6.569,3.6,10.121,2.564l.106-.031a3.168,3.168,0,0,1,3.828,4.473l-3.049,5.687a24.438,24.438,0,0,0,11.643-.248,3.166,3.166,0,0,1,3.362,4.926c-10.055,13.805-26.855,22.72-44,22.616-12.184-.074-24.494-4.274-36.352-1.472a31.577,31.577,0,0,0-21.238,44.328c-3.643-3.985-10.685-3.041-14.411.866s-4.691,9.738-4.315,15.124c.574,8.238,3.8,16,7.2,23.554-28.526-.9-55.508-20.909-64.59-47.974C230.858,316.585,240.416,284.183,262.827,266.305Z" transform="translate(-11.904 143.039)" fill="#2f2e41"/>
    <path id="Path_133" data-name="Path 133" d="M87.464,495.253l18.809,102.335,11.286.983Z" transform="translate(118.54 179.485)" opacity="0.2"/>
    <path id="Path_134" data-name="Path 134" d="M352.222,485.026,333.414,595l-11.286,1.056Z" transform="translate(60.962 181.995)" opacity="0.2"/>
    <path id="Path_135" data-name="Path 135" d="M280.339,206.972c-3.606,1.506-7.369-.144-8.947-3.924-1.6-3.837-.106-7.732,3.558-9.262s7.36.124,8.989,4.023C285.542,201.65,284.062,205.418,280.339,206.972Zm-6.908-20.739-2.867,1.2a3.093,3.093,0,0,1-3.929-1.441l-.142-.277c-3.085-5.564-3.439-12.327-1.044-20.089,2.218-6.963,3.139-11.861,1.286-16.3-2.142-5.13-6.716-6.736-12.548-4.409-2.262.945-2.982.93-4.762,2.7a4.087,4.087,0,0,1-2.959,1.2,3.951,3.951,0,0,1-2.828-1.24,4.035,4.035,0,0,1-.028-5.507,31.344,31.344,0,0,1,10.6-7.278c12.532-5.233,18.841,2.493,21.727,9.406,2.824,6.762,1.235,13.037-1.317,21.163-2.139,6.752-2.014,11.755.415,16.73a3.08,3.08,0,0,1-1.6,4.143Z" transform="translate(-13.373 167.931)" fill="#a3c8db"/>
    <path id="Path_136" data-name="Path 136" d="M684.87,271.168h-60.9a1.467,1.467,0,1,1,0-2.934h60.9a1.467,1.467,0,0,1,0,2.934Z" transform="translate(-106.6 134.767)" fill="#a3c8db"/>
    <path id="Path_137" data-name="Path 137" d="M787.251,271.816h-60.9a1.467,1.467,0,1,1,0-2.934h60.9a1.467,1.467,0,0,1,0,2.934Z" transform="translate(-131.72 134.608)" fill="#a3c8db"/>
    <path id="Path_138" data-name="Path 138" d="M889.633,272.464h-60.9a1.467,1.467,0,0,1,0-2.934h60.9a1.467,1.467,0,1,1,0,2.934Z" transform="translate(-156.841 134.449)" fill="#a3c8db"/>
    <path id="Path_139" data-name="Path 139" d="M992.011,273.112h-60.9a1.467,1.467,0,1,1,0-2.934h60.9a1.467,1.467,0,0,1,0,2.934Z" transform="translate(-181.96 134.29)" fill="#a3c8db"/>
    <circle id="Ellipse_23" data-name="Ellipse 23" cx="11.32" cy="11.32" r="11.32" transform="translate(536.363 369.795)" fill="#a3c8db"/>
    <circle id="Ellipse_24" data-name="Ellipse 24" cx="11.32" cy="11.32" r="11.32" transform="translate(614.091 369.795)" fill="#a3c8db"/>
    <circle id="Ellipse_25" data-name="Ellipse 25" cx="11.32" cy="11.32" r="11.32" transform="translate(691.819 369.795)" fill="#a3c8db"/>
    <circle id="Ellipse_26" data-name="Ellipse 26" cx="11.32" cy="11.32" r="11.32" transform="translate(769.547 369.795)" fill="#a3c8db"/>
  </g>
</svg>
